<svg xmlns="http://www.w3.org/2000/svg" width="603" height="146" viewBox="0 0 603 146"><title>Artboard</title><g fill="none" fill-rule="evenodd"><path d="M602.907 93.089c-3.021.335-6.08-1.09-9.185-4.272L510.56 3.616a11.573 11.573 0 0 0-16.646 0l-25.711 26.341 92.311 94.576c6.341 6.497 13.01 11.48 20.006 14.948 7 3.47 14.025 5.323 21.076 5.56 7.053.236 14.03-1.108 20.936-4.04 6.905-2.927 13.434-7.543 19.587-13.847l94.777-97.102-25.885-26.52a11.572 11.572 0 0 0-16.647.001l-82.312 84.331c-3.078 3.155-6.125 4.895-9.145 5.225" fill="#52ACC8" style="mix-blend-mode:multiply"/><path d="M201.643 93.23c-3.021.335-6.08-1.09-9.185-4.27L109.296 3.757a11.573 11.573 0 0 0-16.646 0L66.94 30.098l92.31 94.576c6.342 6.497 13.01 11.48 20.007 14.948 7 3.47 14.024 5.323 21.075 5.56 7.053.236 14.03-1.108 20.937-4.04 6.904-2.928 13.433-7.543 19.587-13.848l94.776-97.101-25.885-26.52a11.572 11.572 0 0 0-16.647.001l-82.312 84.331c-3.078 3.154-6.124 4.895-9.145 5.225" fill="#8FCDC2" style="mix-blend-mode:multiply"/><path d="M1.704 93.23c-3.021.335-6.08-1.09-9.185-4.27L-90.643 3.757a11.573 11.573 0 0 0-16.646 0L-133 30.098l92.311 94.576c6.342 6.497 13.01 11.48 20.006 14.948 7 3.47 14.025 5.323 21.076 5.56 7.053.236 14.03-1.108 20.937-4.04 6.904-2.928 13.433-7.543 19.587-13.848l94.776-97.101-25.885-26.52a11.572 11.572 0 0 0-16.647.001L10.85 88.006c-3.078 3.154-6.125 4.895-9.145 5.225" fill="#52ACC8" style="mix-blend-mode:multiply"/><path d="M402.44 93.23c-3.02.335-6.08-1.09-9.185-4.27L310.093 3.757a11.573 11.573 0 0 0-16.646 0l-25.71 26.341 92.31 94.576c6.342 6.497 13.01 11.48 20.007 14.948 7 3.47 14.024 5.323 21.076 5.56 7.053.236 14.029-1.108 20.936-4.04 6.904-2.928 13.433-7.543 19.587-13.848l94.776-97.101-25.884-26.52a11.572 11.572 0 0 0-16.647.001l-82.312 84.331c-3.079 3.154-6.125 4.895-9.146 5.225" fill="#617AA0" style="mix-blend-mode:multiply"/></g></svg>